{
  "accessors": [
    {
      "bufferView": 2,
      "componentType": 5126,
      "count": 1240,
      "max": [
        0.59811931848526,
        1.173521637916565,
        0.23285959661006927
      ],
      "min": [
        -0.59811931848526,
        -1.3914462327957153,
        -0.4385647177696228
      ],
      "type": "VEC3"
    },
    {
      "bufferView": 2,
      "byteOffset": 14880,
      "componentType": 5126,
      "count": 1240,
      "max": [
        0.9882810711860657,
        0.999008297920227,
        0.9998383522033691
      ],
      "min": [
        -0.988280713558197,
        -0.9994660019874573,
        -0.9980465173721313
      ],
      "type": "VEC3"
    },
    {
      "bufferView": 1,
      "componentType": 5126,
      "count": 1240,
      "max": [
        0.78125,
        1.0000001192092896
      ],
      "min": [
        0.21875,
        0.49999988079071045
      ],
      "type": "VEC2"
    },
    {
      "bufferView": 0,
      "componentType": 5125,
      "count": 1860,
      "type": "SCALAR"
    },
    {
      "bufferView": 2,
      "byteOffset": 29760,
      "componentType": 5126,
      "count": 72,
      "max": [
        0.009899620898067951,
        0.009899620898067951,
        0.05000000074505806
      ],
      "min": [
        -0.009899621829390526,
        -0.009899620898067951,
        -0.05000000074505806
      ],
      "type": "VEC3"
    },
    {
      "bufferView": 2,
      "byteOffset": 30624,
      "componentType": 5126,
      "count": 72,
      "max": [
        0.9928097128868103,
        0.9928097128868103,
        1.0
      ],
      "min": [
        -0.9928097128868103,
        -0.9928097128868103,
        -1.0
      ],
      "type": "VEC3"
    },
    {
      "bufferView": 1,
      "byteOffset": 9920,
      "componentType": 5126,
      "count": 72,
      "max": [
        1.0,
        1.0
      ],
      "min": [
        7.450580596923828e-08,
        0.01000000536441803
      ],
      "type": "VEC2"
    },
    {
      "bufferView": 0,
      "byteOffset": 7440,
      "componentType": 5125,
      "count": 132,
      "type": "SCALAR"
    },
    {
      "bufferView": 2,
      "byteOffset": 31488,
      "componentType": 5126,
      "count": 168,
      "max": [
        0.14896395802497864,
        0.47413691878318787,
        0.020000014454126358
      ],
      "min": [
        -0.2018415778875351,
        -0.33225128054618835,
        -0.6430076956748962
      ],
      "type": "VEC3"
    },
    {
      "bufferView": 2,
      "byteOffset": 33504,
      "componentType": 5126,
      "count": 168,
      "max": [
        0.927998960018158,
        0.9279987215995789,
        0.965925931930542
      ],
      "min": [
        -0.9279990196228027,
        -0.9279990196228027,
        -0.9992333650588989
      ],
      "type": "VEC3"
    },
    {
      "bufferView": 1,
      "byteOffset": 10496,
      "componentType": 5126,
      "count": 168,
      "max": [
        1.0,
        1.0
      ],
      "min": [
        7.450580596923828e-08,
        0.0
      ],
      "type": "VEC2"
    },
    {
      "bufferView": 0,
      "byteOffset": 7968,
      "componentType": 5125,
      "count": 324,
      "type": "SCALAR"
    },
    {
      "bufferView": 2,
      "byteOffset": 35520,
      "componentType": 5126,
      "count": 136,
      "max": [
        0.03776001185178757,
        0.08011680841445923,
        0.08095759153366089
      ],
      "min": [
        -0.026236116886138916,
        -0.08011680841445923,
        -0.04570382833480835
      ],
      "type": "VEC3"
    },
    {
      "bufferView": 2,
      "byteOffset": 37152,
      "componentType": 5126,
      "count": 136,
      "max": [
        0.9576011896133423,
        0.9757935404777527,
        0.9353553056716919
      ],
      "min": [
        -0.9576011896133423,
        -0.9757936000823975,
        -0.9353554844856262
      ],
      "type": "VEC3"
    },
    {
      "bufferView": 1,
      "byteOffset": 11840,
      "componentType": 5126,
      "count": 136,
      "max": [
        1.0,
        1.0
      ],
      "min": [
        7.450580596923828e-08,
        0.01000000536441803
      ],
      "type": "VEC2"
    },
    {
      "bufferView": 0,
      "byteOffset": 9264,
      "componentType": 5125,
      "count": 204,
      "type": "SCALAR"
    },
    {
      "bufferView": 2,
      "byteOffset": 38784,
      "componentType": 5126,
      "count": 526,
      "max": [
        0.4758804142475128,
        0.02664789929986,
        0.14891469478607178
      ],
      "min": [
        -1.7873601913452148,
        -0.02664807066321373,
        -0.1489146649837494
      ],
      "type": "VEC3"
    },
    {
      "bufferView": 2,
      "byteOffset": 45096,
      "componentType": 5126,
      "count": 526,
      "max": [
        1.0,
        1.0,
        0.9659260511398315
      ],
      "min": [
        -0.7724786400794983,
        -1.0,
        -0.9659259915351868
      ],
      "type": "VEC3"
    },
    {
      "bufferView": 1,
      "byteOffset": 12928,
      "componentType": 5126,
      "count": 526,
      "max": [
        1.0,
        1.0
      ],
      "min": [
        7.450580596923828e-08,
        0.0
      ],
      "type": "VEC2"
    },
    {
      "bufferView": 0,
      "byteOffset": 10080,
      "componentType": 5125,
      "count": 762,
      "type": "SCALAR"
    },
    {
      "bufferView": 2,
      "byteOffset": 51408,
      "componentType": 5126,
      "count": 136,
      "max": [
        0.02870524488389492,
        0.08021707832813263,
        0.08084480464458466
      ],
      "min": [
        -0.038961011916399,
        -0.08021708577871323,
        -0.044638630002737045
      ],
      "type": "VEC3"
    },
    {
      "bufferView": 2,
      "byteOffset": 53040,
      "componentType": 5126,
      "count": 136,
      "max": [
        0.9522278904914856,
        0.9740478992462158,
        0.9265769720077515
      ],
      "min": [
        -0.9522278308868408,
        -0.974047839641571,
        -0.9265769124031067
      ],
      "type": "VEC3"
    },
    {
      "bufferView": 1,
      "byteOffset": 17136,
      "componentType": 5126,
      "count": 136,
      "max": [
        1.0,
        1.0
      ],
      "min": [
        7.450580596923828e-08,
        0.01000000536441803
      ],
      "type": "VEC2"
    },
    {
      "bufferView": 0,
      "byteOffset": 13128,
      "componentType": 5125,
      "count": 204,
      "type": "SCALAR"
    },
    {
      "bufferView": 2,
      "byteOffset": 54672,
      "componentType": 5126,
      "count": 526,
      "max": [
        0.4758804142475128,
        0.02664789929986,
        0.14891469478607178
      ],
      "min": [
        -1.7873601913452148,
        -0.02664807066321373,
        -0.1489146649837494
      ],
      "type": "VEC3"
    },
    {
      "bufferView": 2,
      "byteOffset": 60984,
      "componentType": 5126,
      "count": 526,
      "max": [
        1.0,
        1.0,
        0.9659260511398315
      ],
      "min": [
        -0.7724786400794983,
        -1.0,
        -0.9659259915351868
      ],
      "type": "VEC3"
    },
    {
      "bufferView": 1,
      "byteOffset": 18224,
      "componentType": 5126,
      "count": 526,
      "max": [
        1.0,
        1.0
      ],
      "min": [
        7.450580596923828e-08,
        0.0
      ],
      "type": "VEC2"
    },
    {
      "bufferView": 0,
      "byteOffset": 13944,
      "componentType": 5125,
      "count": 762,
      "type": "SCALAR"
    },
    {
      "bufferView": 2,
      "byteOffset": 67296,
      "componentType": 5126,
      "count": 24,
      "max": [
        1.0,
        1.0,
        1.0
      ],
      "min": [
        -1.0,
        -1.0,
        -1.0
      ],
      "type": "VEC3"
    },
    {
      "bufferView": 2,
      "byteOffset": 67584,
      "componentType": 5126,
      "count": 24,
      "max": [
        1.0,
        1.0,
        1.0
      ],
      "min": [
        -1.0,
        -1.0,
        -1.0
      ],
      "type": "VEC3"
    },
    {
      "bufferView": 1,
      "byteOffset": 22432,
      "componentType": 5126,
      "count": 24,
      "max": [
        0.875,
        1.0
      ],
      "min": [
        0.125,
        0.0
      ],
      "type": "VEC2"
    },
    {
      "bufferView": 0,
      "byteOffset": 16992,
      "componentType": 5125,
      "count": 36,
      "type": "SCALAR"
    },
    {
      "bufferView": 2,
      "byteOffset": 67872,
      "componentType": 5126,
      "count": 224,
      "max": [
        0.9999999403953552,
        0.2155395746231079,
        0.1013268232345581
      ],
      "min": [
        -0.9999999403953552,
        -1.0135518312454224,
        -0.09453994035720825
      ],
      "type": "VEC3"
    },
    {
      "bufferView": 2,
      "byteOffset": 70560,
      "componentType": 5126,
      "count": 224,
      "max": [
        0.0785459652543068,
        0.2427903562784195,
        0.9964666366577148
      ],
      "min": [
        -0.0785459652543068,
        0.07822170853614807,
        0.9674854278564453
      ],
      "type": "VEC3"
    },
    {
      "bufferView": 1,
      "byteOffset": 22624,
      "componentType": 5126,
      "count": 224,
      "max": [
        1.0,
        1.0
      ],
      "min": [
        0.0,
        0.0
      ],
      "type": "VEC2"
    },
    {
      "bufferView": 0,
      "byteOffset": 17136,
      "componentType": 5125,
      "count": 384,
      "type": "SCALAR"
    }
  ],
  "asset": {
    "extras": {
      "author": "martin.s.stoller (https://sketchfab.com/martin.s.stoller)",
      "license": "CC-BY-4.0 (http://creativecommons.org/licenses/by/4.0/)",
      "source": "https://sketchfab.com/3d-models/simple-low-poly-row-boat-70f320ab009a4c7091daa0366217dd1f",
      "title": "Simple Low-poly Row Boat"
    },
    "generator": "Sketchfab-12.68.0",
    "version": "2.0"
  },
  "bufferViews": [
    {
      "buffer": 0,
      "byteLength": 18672,
      "name": "floatBufferViews",
      "target": 34963
    },
    {
      "buffer": 0,
      "byteLength": 24416,
      "byteOffset": 18672,
      "byteStride": 8,
      "name": "floatBufferViews",
      "target": 34962
    },
    {
      "buffer": 0,
      "byteLength": 73248,
      "byteOffset": 43088,
      "byteStride": 12,
      "name": "floatBufferViews",
      "target": 34962
    }
  ],
  "buffers": [
    {
      "byteLength": 116336,
      "uri": "scene.bin"
    }
  ],
  "materials": [
    {
      "doubleSided": true,
      "name": "BoatPlanks",
      "pbrMetallicRoughness": {
        "baseColorFactor": [
          0.239552,
          0.138056,
          0.0278522,
          1.0
        ],
        "metallicFactor": 0.0,
        "roughnessFactor": 0.9758082530374902
      }
    },
    {
      "doubleSided": true,
      "name": "Copper",
      "pbrMetallicRoughness": {
        "baseColorFactor": [
          0.8,
          0.463109,
          0.0295904,
          1.0
        ],
        "metallicFactor": 0.0,
        "roughnessFactor": 0.8472141855458029
      }
    },
    {
      "doubleSided": true,
      "name": "BoatOars",
      "pbrMetallicRoughness": {
        "baseColorFactor": [
          0.0331027,
          0.0206947,
          0.00587941,
          1.0
        ],
        "metallicFactor": 0.0,
        "roughnessFactor": 0.9964491708532094
      }
    },
    {
      "doubleSided": true,
      "name": "BoatSeat",
      "pbrMetallicRoughness": {
        "baseColorFactor": [
          0.102474,
          0.0314462,
          0.00430876,
          1.0
        ],
        "metallicFactor": 0.0,
        "roughnessFactor": 0.990029957147847
      }
    },
    {
      "doubleSided": true,
      "name": "SealHide.001",
      "pbrMetallicRoughness": {
        "baseColorFactor": [
          0.0495493,
          0.016062,
          0.00220734,
          1.0
        ],
        "metallicFactor": 0.0,
        "roughnessFactor": 0.9974556547875283
      }
    }
  ],
  "meshes": [
    {
      "name": "Boat_BoatPlanks_0",
      "primitives": [
        {
          "attributes": {
            "NORMAL": 1,
            "POSITION": 0,
            "TEXCOORD_0": 2
          },
          "indices": 3,
          "material": 0,
          "mode": 4
        }
      ]
    },
    {
      "name": "Noat.Rudder.Hinge_Copper_0",
      "primitives": [
        {
          "attributes": {
            "NORMAL": 5,
            "POSITION": 4,
            "TEXCOORD_0": 6
          },
          "indices": 7,
          "material": 1,
          "mode": 4
        }
      ]
    },
    {
      "name": "Boat.Rudder_BoatPlanks_0",
      "primitives": [
        {
          "attributes": {
            "NORMAL": 9,
            "POSITION": 8,
            "TEXCOORD_0": 10
          },
          "indices": 11,
          "material": 0,
          "mode": 4
        }
      ]
    },
    {
      "name": "Boat.OarRing.R_Copper_0",
      "primitives": [
        {
          "attributes": {
            "NORMAL": 13,
            "POSITION": 12,
            "TEXCOORD_0": 14
          },
          "indices": 15,
          "material": 1,
          "mode": 4
        }
      ]
    },
    {
      "name": "Boat.Oar.R_BoatOars_0",
      "primitives": [
        {
          "attributes": {
            "NORMAL": 17,
            "POSITION": 16,
            "TEXCOORD_0": 18
          },
          "indices": 19,
          "material": 2,
          "mode": 4
        }
      ]
    },
    {
      "name": "Boat.OarRing.L_Copper_0",
      "primitives": [
        {
          "attributes": {
            "NORMAL": 21,
            "POSITION": 20,
            "TEXCOORD_0": 22
          },
          "indices": 23,
          "material": 1,
          "mode": 4
        }
      ]
    },
    {
      "name": "Boat.Oar.L_BoatOars_0",
      "primitives": [
        {
          "attributes": {
            "NORMAL": 25,
            "POSITION": 24,
            "TEXCOORD_0": 26
          },
          "indices": 27,
          "material": 2,
          "mode": 4
        }
      ]
    },
    {
      "name": "Boat.Seat_BoatSeat_0",
      "primitives": [
        {
          "attributes": {
            "NORMAL": 29,
            "POSITION": 28,
            "TEXCOORD_0": 30
          },
          "indices": 31,
          "material": 3,
          "mode": 4
        }
      ]
    },
    {
      "name": "Boat_Cover.Raw.001_SealHide.001_0",
      "primitives": [
        {
          "attributes": {
            "NORMAL": 33,
            "POSITION": 32,
            "TEXCOORD_0": 34
          },
          "indices": 35,
          "material": 4,
          "mode": 4
        }
      ]
    }
  ],
  "nodes": [
    {
      "children": [
        1
      ],
      "matrix": [
        1.0,
        0.0,
        0.0,
        0.0,
        0.0,
        2.220446049250313e-16,
        -1.0,
        0.0,
        0.0,
        1.0,
        2.220446049250313e-16,
        0.0,
        0.0,
        0.0,
        0.0,
        1.0
      ],
      "name": "Sketchfab_model"
    },
    {
      "children": [
        2
      ],
      "matrix": [
        1.0,
        0.0,
        0.0,
        0.0,
        0.0,
        0.0,
        1.0,
        0.0,
        0.0,
        -1.0,
        0.0,
        0.0,
        0.0,
        0.0,
        0.0,
        1.0
      ],
      "name": "568d6e4f90d54ebd99d3271b814b6134.fbx"
    },
    {
      "children": [
        3
      ],
      "name": "RootNode"
    },
    {
      "children": [
        4,
        5,
        9,
        13,
        17,
        19
      ],
      "matrix": [
        100.0,
        0.0,
        0.0,
        0.0,
        0.0,
        -1.629206793918314e-05,
        -99.99999999999868,
        0.0,
        0.0,
        99.99999999999868,
        -1.629206793918314e-05,
        0.0,
        0.0,
        39.925689697265625,
        0.0,
        1.0
      ],
      "name": "Boat"
    },
    {
      "mesh": 0,
      "name": "Boat_BoatPlanks_0"
    },
    {
      "children": [
        6,
        7
      ],
      "matrix": [
        1.0,
        0.0,
        0.0,
        0.0,
        0.0,
        1.0,
        -2.646977960169688e-23,
        0.0,
        0.0,
        2.646977960169688e-23,
        1.0,
        0.0,
        0.0,
        1.1789183616638184,
        -0.033657073974609375,
        1.0
      ],
      "name": "Noat.Rudder.Hinge"
    },
    {
      "mesh": 1,
      "name": "Noat.Rudder.Hinge_Copper_0"
    },
    {
      "children": [
        8
      ],
      "matrix": [
        1.0,
        0.0,
        0.0,
        0.0,
        0.0,
        1.0,
        -2.646977960169688e-23,
        0.0,
        0.0,
        2.646977960169688e-23,
        1.0,
        0.0,
        0.02606254816055298,
        -0.06491446495056152,
        0.11362016201019287,
        1.0
      ],
      "name": "Boat.Rudder"
    },
    {
      "mesh": 2,
      "name": "Boat.Rudder_BoatPlanks_0"
    },
    {
      "children": [
        10,
        11
      ],
      "matrix": [
        1.0,
        0.0,
        0.0,
        0.0,
        0.0,
        1.0,
        -2.646977960169688e-23,
        0.0,
        0.0,
        2.646977960169688e-23,
        1.0,
        0.0,
        -0.5547902584075928,
        0.008979614824056625,
        0.03248217701911926,
        1.0
      ],
      "name": "Boat.OarRing.R"
    },
    {
      "mesh": 3,
      "name": "Boat.OarRing.R_Copper_0"
    },
    {
      "children": [
        12
      ],
      "matrix": [
        0.84473915802313,
        -0.48078941697295596,
        0.23506844156520132,
        0.0,
        0.37646435610987916,
        0.8460208104145212,
        0.37752268398644734,
        0.0,
        -0.3803817045637796,
        -0.2304133047097474,
        0.8956669853447767,
        0.0,
        -0.00170212984085083,
        -0.008979614824056625,
        0.009633570909500122,
        1.0
      ],
      "name": "Boat.Oar.R"
    },
    {
      "mesh": 4,
      "name": "Boat.Oar.R_BoatOars_0"
    },
    {
      "children": [
        14,
        15
      ],
      "matrix": [
        1.0,
        0.0,
        0.0,
        0.0,
        0.0,
        1.0,
        -2.646977960169688e-23,
        0.0,
        0.0,
        2.646977960169688e-23,
        1.0,
        0.0,
        0.5569044947624207,
        0.008979614824056625,
        0.03248217701911926,
        1.0
      ],
      "name": "Boat.OarRing.L"
    },
    {
      "mesh": 5,
      "name": "Boat.OarRing.L_Copper_0"
    },
    {
      "children": [
        16
      ],
      "matrix": [
        -0.9651037511521361,
        -0.06476140364233768,
        0.25373330664511506,
        -0.0,
        -0.2325589311349613,
        0.6573758753598913,
        -0.7167798141997173,
        -0.0,
        0.12037849486884197,
        0.7507748787706756,
        0.6494968047496383,
        -0.0,
        0.004576981067657471,
        -0.008979614824056625,
        0.009633570909500122,
        1.0
      ],
      "name": "Boat.Oar.L"
    },
    {
      "mesh": 6,
      "name": "Boat.Oar.L_BoatOars_0"
    },
    {
      "children": [
        18
      ],
      "matrix": [
        0.559826672077179,
        0.0,
        0.0,
        0.0,
        0.0,
        0.1770344078540802,
        0.0,
        0.0,
        0.0,
        0.0,
        0.021918363869190216,
        0.0,
        0.005121909081935883,
        0.33251452445983887,
        -0.09930261969566345,
        1.0
      ],
      "name": "Boat.Seat"
    },
    {
      "mesh": 7,
      "name": "Boat.Seat_BoatSeat_0"
    },
    {
      "children": [
        20
      ],
      "matrix": [
        0.4783817529678345,
        0.0,
        0.0,
        0.0,
        0.0,
        0.5532242655754016,
        -9.013167627460379e-08,
        0.0,
        0.0,
        1.6292068494294582e-07,
        0.9999999999999867,
        0.0,
        0.0,
        -0.704646646976471,
        0.10583499073982239,
        1.0
      ],
      "name": "Boat_Cover.Raw.001"
    },
    {
      "mesh": 8,
      "name": "Boat_Cover.Raw.001_SealHide.001_0"
    }
  ],
  "scene": 0,
  "scenes": [
    {
      "name": "Sketchfab_Scene",
      "nodes": [
        0
      ]
    }
  ]
}
